<svg width="71" height="76" viewBox="0 0 71 76" fill="none" xmlns="http://www.w3.org/2000/svg">
<path d="M51.6344 48.6792C58.4548 46.9334 61.3057 43.5246 61.7606 40.0934C62.06 37.8115 61.5098 33.3592 54.5575 29.068C55.9472 23.551 55.3663 18.6004 51.6817 15.7217C47.9972 12.843 43.053 13.477 38.0361 16.1601C32.1912 10.4619 27.7365 10.995 25.5956 11.8382C22.3743 13.1107 19.759 16.6983 19.7146 23.7407C12.8943 25.4865 10.0434 28.8953 9.58845 32.3265C8.78194 38.4422 15.4484 42.5216 16.7916 43.3519C15.4016 48.8674 15.9828 53.8195 19.6673 56.6982C23.3519 59.5769 28.2975 58.9428 33.3129 56.2598C34.4427 57.3616 40.0136 62.8431 45.7534 60.5817C48.9747 59.3092 51.5901 55.7216 51.6344 48.6792ZM16.1106 33.2979C16.2212 32.455 17.6453 31.3005 20.3923 30.4193C20.5716 31.401 20.7852 32.3876 21.0395 33.3969C20.3266 34.607 19.684 35.8281 19.1042 37.0505C16.9749 35.5017 16.0095 34.0695 16.1106 33.2979ZM29.4039 22.691C28.3639 22.6891 27.3549 22.7205 26.3581 22.7834C26.5501 19.9046 27.3258 18.2435 28.116 17.9317C28.7878 17.6652 30.217 18.0948 32.0348 19.5151C32.1792 19.6279 32.3428 19.7943 32.4921 19.92C31.4204 20.7972 30.39 21.7217 29.4039 22.691ZM47.6799 20.8437C48.4795 21.4684 48.7089 23.3902 48.2089 26.0593C47.0328 25.6173 45.8141 25.2193 44.546 24.855C43.8857 23.7127 43.2047 22.6265 42.4913 21.5922C44.9602 20.4614 46.8804 20.2191 47.6799 20.8437ZM23.6691 51.5762C22.8696 50.9515 22.6402 49.0297 23.1401 46.3606C24.3162 46.8026 25.535 47.2006 26.803 47.5649C27.4634 48.7072 28.1443 49.7935 28.8577 50.8277C26.3889 51.9585 24.4687 52.2008 23.6691 51.5762ZM38.7836 43.1074C35.3363 42.8732 33.054 42.4112 31.1631 41.9843C30.2917 40.2543 29.2917 38.1494 28.2298 34.8619C29.7994 32.5065 30.6592 31.4061 32.5648 29.3133C36.0078 29.5479 38.293 30.0096 40.1853 30.4364C41.0583 32.1714 42.06 34.2777 43.1187 37.5588C41.5488 39.9127 40.6899 41.0138 38.7836 43.1074ZM43.2331 54.4883C42.5093 54.776 40.8898 54.1809 38.8689 52.4899C39.9148 51.6315 40.9441 50.7125 41.9445 49.7297C42.9846 49.7316 43.9935 49.7002 44.9903 49.6373C44.799 52.5153 44.0233 54.1764 43.2331 54.4883ZM50.9567 42.0006C50.7774 41.0189 50.5638 40.0323 50.3095 39.023C51.0113 37.8316 51.6591 36.6082 52.2511 35.3562C52.4092 35.4706 52.6095 35.5884 52.7547 35.7019C54.5716 37.1215 55.3345 38.4057 55.2391 39.1212C55.127 39.9643 53.703 41.1187 50.9567 42.0006ZM37.6754 33.6489C36.1835 32.4833 34.0776 32.6849 32.9728 34.0991C31.8679 35.5133 32.1817 37.6054 33.6736 38.771C35.1655 39.9366 37.2714 39.735 38.3763 38.3208C39.4812 36.9066 39.1673 34.8145 37.6754 33.6489Z" fill="#F07844"/>
<path d="M27.746 67.758C27.7553 67.4547 27.7273 67.1723 27.662 66.911C27.6013 66.645 27.48 66.4303 27.298 66.267C27.116 66.099 26.8547 66.015 26.514 66.015C26.0707 66.015 25.7253 66.2297 25.478 66.659C25.2353 67.0883 25.114 67.73 25.114 68.584C25.114 69.424 25.2517 70.0377 25.527 70.425C25.8023 70.8077 26.192 70.999 26.696 70.999C27.0133 70.999 27.3143 70.9267 27.599 70.782C27.8837 70.6327 28.1497 70.467 28.397 70.285C28.523 70.3643 28.6467 70.4903 28.768 70.663C28.894 70.831 28.9733 70.9943 29.006 71.153C28.6887 71.461 28.313 71.7107 27.879 71.902C27.445 72.0887 26.9783 72.182 26.479 72.182C25.8117 72.182 25.2657 72.0163 24.841 71.685C24.421 71.3537 24.1107 70.915 23.91 70.369C23.714 69.823 23.616 69.228 23.616 68.584C23.616 67.7207 23.756 67.0183 24.036 66.477C24.3207 65.9357 24.687 65.539 25.135 65.287C25.583 65.035 26.0543 64.909 26.549 64.909C27.1183 64.909 27.5897 65.0187 27.963 65.238C28.3363 65.4527 28.6163 65.7233 28.803 66.05C28.9897 66.372 29.083 66.694 29.083 67.016C29.083 67.2633 29.0247 67.4593 28.908 67.604C28.7913 67.7487 28.6047 67.821 28.348 67.821C28.1473 67.821 27.9467 67.8 27.746 67.758ZM36.1718 68.542C36.1718 69.2607 36.0575 69.893 35.8288 70.439C35.6001 70.985 35.2618 71.412 34.8138 71.72C34.3658 72.028 33.8081 72.182 33.1408 72.182C32.4781 72.182 31.9228 72.028 31.4748 71.72C31.0268 71.4073 30.6885 70.978 30.4598 70.432C30.2358 69.8813 30.1238 69.2513 30.1238 68.542C30.1238 67.8327 30.2381 67.205 30.4668 66.659C30.6955 66.1083 31.0338 65.679 31.4818 65.371C31.9298 65.063 32.4828 64.909 33.1408 64.909C33.8128 64.909 34.3728 65.0653 34.8208 65.378C35.2688 65.686 35.6048 66.1153 35.8288 66.666C36.0575 67.212 36.1718 67.8373 36.1718 68.542ZM31.6148 68.542C31.6148 68.9807 31.6591 69.3937 31.7478 69.781C31.8365 70.1637 31.9928 70.4763 32.2168 70.719C32.4408 70.957 32.7535 71.076 33.1548 71.076C33.5515 71.076 33.8595 70.957 34.0788 70.719C34.3028 70.4763 34.4591 70.1637 34.5478 69.781C34.6365 69.3937 34.6808 68.9807 34.6808 68.542C34.6808 68.1127 34.6365 67.7043 34.5478 67.317C34.4591 66.9297 34.3028 66.6147 34.0788 66.372C33.8595 66.1293 33.5515 66.008 33.1548 66.008C32.7535 66.008 32.4408 66.1293 32.2168 66.372C31.9928 66.6147 31.8365 66.9297 31.7478 67.317C31.6591 67.7043 31.6148 68.1127 31.6148 68.542ZM37.3973 68.626C37.3973 67.7953 37.5279 67.1093 37.7893 66.568C38.0506 66.0267 38.3866 65.6253 38.7973 65.364C39.2079 65.098 39.6373 64.965 40.0853 64.965C40.3793 64.965 40.6569 65.0093 40.9183 65.098C41.1796 65.182 41.4293 65.2917 41.6673 65.427V61.794L41.7583 61.703H42.3043C42.6076 61.703 42.8129 61.7777 42.9203 61.927C43.0323 62.0717 43.0883 62.305 43.0883 62.627V70.033C43.0883 70.3037 43.1139 70.558 43.1653 70.796C43.2213 71.034 43.3263 71.2207 43.4803 71.356C43.4429 71.4867 43.3706 71.6267 43.2633 71.776C43.1606 71.9207 43.0509 72.0303 42.9343 72.105C42.6543 72.049 42.4256 71.944 42.2483 71.79C42.0709 71.636 41.9356 71.4493 41.8423 71.23C41.6043 71.5007 41.3103 71.727 40.9603 71.909C40.6149 72.091 40.2299 72.182 39.8053 72.182C39.2733 72.182 38.8276 72.0327 38.4683 71.734C38.1136 71.4307 37.8453 71.013 37.6633 70.481C37.4859 69.9443 37.3973 69.326 37.3973 68.626ZM38.8743 68.633C38.8743 69.4683 39.0003 70.068 39.2523 70.432C39.5043 70.796 39.8006 70.978 40.1413 70.978C40.3886 70.978 40.6499 70.9057 40.9253 70.761C41.2053 70.6163 41.4526 70.3923 41.6673 70.089V66.631C41.4573 66.491 41.2333 66.372 40.9953 66.274C40.7619 66.176 40.5239 66.127 40.2812 66.127C39.8893 66.127 39.5556 66.3323 39.2803 66.743C39.0096 67.149 38.8743 67.779 38.8743 68.633ZM50.3301 71.391C49.9941 71.629 49.5951 71.8203 49.1331 71.965C48.6711 72.1097 48.1974 72.182 47.7121 72.182C47.1567 72.182 46.6924 72.084 46.3191 71.888C45.9457 71.6873 45.6494 71.419 45.4301 71.083C45.2107 70.7423 45.0544 70.355 44.9611 69.921C44.8677 69.4823 44.8211 69.0273 44.8211 68.556C44.8211 67.8607 44.9284 67.2377 45.1431 66.687C45.3624 66.1363 45.6867 65.7023 46.1161 65.385C46.5501 65.0677 47.0914 64.909 47.7401 64.909C48.3467 64.909 48.8554 65.042 49.2661 65.308C49.6814 65.574 49.9941 65.9333 50.2041 66.386C50.4141 66.834 50.5191 67.3357 50.5191 67.891C50.5191 68.115 50.5097 68.3087 50.4911 68.472C50.4771 68.6307 50.4514 68.8057 50.4141 68.997H46.3191C46.3471 69.5803 46.4754 70.061 46.7041 70.439C46.9327 70.817 47.3411 71.006 47.9291 71.006C48.2791 71.006 48.6174 70.9547 48.9441 70.852C49.2707 70.7493 49.5834 70.6233 49.8821 70.474C49.9987 70.586 50.0967 70.7307 50.1761 70.908C50.2601 71.0853 50.3114 71.2463 50.3301 71.391ZM47.7401 65.973C47.2921 65.973 46.9491 66.148 46.7111 66.498C46.4777 66.848 46.3471 67.3333 46.3191 67.954H49.1331V67.772C49.1331 67.282 49.0257 66.8597 48.8111 66.505C48.5964 66.1503 48.2394 65.973 47.7401 65.973Z" fill="#930F0F"/>
</svg>
